<svg width="1" height="87" viewBox="0 0 1 87" fill="none" xmlns="http://www.w3.org/2000/svg">
<path d="M-4.32561e-08 -3.01042C-5.53266e-08 -2.73427 0.223858 -2.51042 0.5 -2.51042C0.776142 -2.51042 1 -2.73427 1 -3.01042L-4.32561e-08 -3.01042ZM1 2.92708C1 2.65094 0.776142 2.42708 0.5 2.42708C0.223857 2.42708 -2.90722e-07 2.65094 -3.02792e-07 2.92708L1 2.92708ZM-3.89305e-07 4.90625C-4.01375e-07 5.18239 0.223857 5.40625 0.5 5.40625C0.776142 5.40625 1 5.18239 1 4.90625L-3.89305e-07 4.90625ZM0.999999 10.8438C0.999999 10.5676 0.776142 10.3438 0.499999 10.3438C0.223857 10.3437 -6.3677e-07 10.5676 -6.48841e-07 10.8437L0.999999 10.8438ZM-7.35353e-07 12.8229C-7.47424e-07 13.0991 0.223857 13.3229 0.499999 13.3229C0.776142 13.3229 0.999999 13.0991 0.999999 12.8229L-7.35353e-07 12.8229ZM0.999999 18.7604C0.999999 18.4843 0.776141 18.2604 0.499999 18.2604C0.223857 18.2604 -9.82819e-07 18.4843 -9.94889e-07 18.7604L0.999999 18.7604ZM-1.0814e-06 20.7396C-1.09347e-06 21.0157 0.223857 21.2396 0.499999 21.2396C0.776141 21.2396 0.999999 21.0157 0.999999 20.7396L-1.0814e-06 20.7396ZM0.999999 26.6771C0.999999 26.4009 0.776141 26.1771 0.499999 26.1771C0.223856 26.1771 -1.32887e-06 26.4009 -1.34094e-06 26.6771L0.999999 26.6771ZM-1.42745e-06 28.6562C-1.43952e-06 28.9324 0.223856 29.1562 0.499999 29.1562C0.776141 29.1563 0.999999 28.9324 0.999999 28.6563L-1.42745e-06 28.6562ZM0.999998 34.5938C0.999998 34.3176 0.776141 34.0938 0.499998 34.0938C0.223856 34.0937 -1.67492e-06 34.3176 -1.68699e-06 34.5937L0.999998 34.5938ZM-1.7735e-06 36.5729C-1.78557e-06 36.8491 0.223856 37.0729 0.499998 37.0729C0.776141 37.0729 0.999998 36.8491 0.999998 36.5729L-1.7735e-06 36.5729ZM0.999998 42.5104C0.999998 42.2343 0.77614 42.0104 0.499998 42.0104C0.223856 42.0104 -2.02096e-06 42.2343 -2.03304e-06 42.5104L0.999998 42.5104ZM-2.11955e-06 44.4896C-2.13162e-06 44.7657 0.223855 44.9896 0.499998 44.9896C0.77614 44.9896 0.999998 44.7657 0.999998 44.4896L-2.11955e-06 44.4896ZM0.999998 50.4271C0.999998 50.1509 0.77614 49.9271 0.499998 49.9271C0.223855 49.9271 -2.36701e-06 50.1509 -2.37908e-06 50.4271L0.999998 50.4271ZM-2.4656e-06 52.4063C-2.47767e-06 52.6824 0.223855 52.9063 0.499998 52.9063C0.77614 52.9063 0.999998 52.6824 0.999998 52.4063L-2.4656e-06 52.4063ZM0.999997 58.3438C0.999997 58.0676 0.77614 57.8438 0.499997 57.8438C0.223855 57.8438 -2.71306e-06 58.0676 -2.72513e-06 58.3438L0.999997 58.3438ZM-2.81164e-06 60.3229C-2.82371e-06 60.5991 0.223855 60.8229 0.499997 60.8229C0.77614 60.8229 0.999997 60.5991 0.999997 60.3229L-2.81164e-06 60.3229ZM0.999997 66.2604C0.999997 65.9843 0.776139 65.7604 0.499997 65.7604C0.223855 65.7604 -3.05911e-06 65.9843 -3.07118e-06 66.2604L0.999997 66.2604ZM-3.15769e-06 68.2396C-3.16976e-06 68.5157 0.223854 68.7396 0.499997 68.7396C0.776139 68.7396 0.999997 68.5157 0.999997 68.2396L-3.15769e-06 68.2396ZM0.999997 74.1771C0.999997 73.9009 0.776139 73.6771 0.499997 73.6771C0.223854 73.6771 -3.40516e-06 73.9009 -3.41723e-06 74.1771L0.999997 74.1771ZM-3.50374e-06 76.1562C-3.51581e-06 76.4324 0.223854 76.6562 0.499996 76.6562C0.776139 76.6563 0.999996 76.4324 0.999996 76.1563L-3.50374e-06 76.1562ZM0.999996 82.0938C0.999996 81.8176 0.776139 81.5938 0.499996 81.5938C0.223854 81.5937 -3.75121e-06 81.8176 -3.76328e-06 82.0937L0.999996 82.0938ZM-3.84979e-06 84.0729C-3.86186e-06 84.3491 0.223854 84.5729 0.499996 84.5729C0.776139 84.5729 0.999996 84.3491 0.999996 84.0729L-3.84979e-06 84.0729ZM0.999996 90.0104C0.999996 89.7343 0.776138 89.5104 0.499996 89.5104C0.223854 89.5104 -4.09726e-06 89.7343 -4.10933e-06 90.0104L0.999996 90.0104ZM0 -4L-4.32561e-08 -3.01042L1 -3.01042L1 -4L0 -4ZM-3.02792e-07 2.92708L-3.89305e-07 4.90625L1 4.90625L1 2.92708L-3.02792e-07 2.92708ZM-6.48841e-07 10.8437L-7.35353e-07 12.8229L0.999999 12.8229L0.999999 10.8438L-6.48841e-07 10.8437ZM-9.94889e-07 18.7604L-1.0814e-06 20.7396L0.999999 20.7396L0.999999 18.7604L-9.94889e-07 18.7604ZM-1.34094e-06 26.6771L-1.42745e-06 28.6562L0.999999 28.6563L0.999999 26.6771L-1.34094e-06 26.6771ZM-1.68699e-06 34.5937L-1.7735e-06 36.5729L0.999998 36.5729L0.999998 34.5938L-1.68699e-06 34.5937ZM-2.03304e-06 42.5104L-2.11955e-06 44.4896L0.999998 44.4896L0.999998 42.5104L-2.03304e-06 42.5104ZM-2.37908e-06 50.4271L-2.4656e-06 52.4063L0.999998 52.4063L0.999998 50.4271L-2.37908e-06 50.4271ZM-2.72513e-06 58.3438L-2.81164e-06 60.3229L0.999997 60.3229L0.999997 58.3438L-2.72513e-06 58.3438ZM-3.07118e-06 66.2604L-3.15769e-06 68.2396L0.999997 68.2396L0.999997 66.2604L-3.07118e-06 66.2604ZM-3.41723e-06 74.1771L-3.50374e-06 76.1562L0.999996 76.1563L0.999997 74.1771L-3.41723e-06 74.1771ZM-3.76328e-06 82.0937L-3.84979e-06 84.0729L0.999996 84.0729L0.999996 82.0938L-3.76328e-06 82.0937ZM-4.10933e-06 90.0104L-4.15258e-06 91L0.999996 91L0.999996 90.0104L-4.10933e-06 90.0104Z" fill="#CB24FF"/>
</svg>
