<svg width="92" height="103" viewBox="0 0 92 103" fill="none" xmlns="http://www.w3.org/2000/svg">
<path fill-rule="evenodd" clip-rule="evenodd" d="M46.4767 0L46.7152 0.129995L90.7152 24.1117L90.976 24.2538V24.5507V51.5691H89.976V24.8476L46.4752 1.13804L5.47595 23.3388V22.2016L46.2379 0.129341L46.4767 0ZM1.97595 25.5691V76.5691H2.97595V25.5691H1.97595ZM46.2419 102.011L5.47595 80.4163V79.2847L46.476 101.003L67.476 89.8791V91.0107L46.71 102.011L46.476 102.135L46.2419 102.011ZM72.476 88.3621L90.71 78.7032L90.976 78.5623V78.2613V56.5691H89.976V77.9604L72.476 87.2305V88.3621Z" fill="white"/>
<path fill-rule="evenodd" clip-rule="evenodd" d="M0.976196 76.5691V26.5691H3.9762V76.5691H0.976196ZM72.476 89.494L91.1784 79.5869L91.9762 79.1643V78.2614V56.5691H88.9762V77.3585L72.476 86.099V89.494Z" fill="white"/>
<path d="M33.8552 61.4364L55.3433 39.9484M55.3433 39.9484L55.0075 53.0427M55.3433 39.9484L42.249 40.2842" stroke="white" stroke-width="1.5"/>
</svg>
