<svg width="93" height="94" viewBox="0 0 93 94" fill="none" xmlns="http://www.w3.org/2000/svg">
<path fill-rule="evenodd" clip-rule="evenodd" d="M46.9876 0C52.0281 0 56.8793 0.810524 61.4181 2.30835V3.36297C56.8881 1.83075 52.0349 1 46.9876 1C22.1285 1 1.9762 21.1523 1.9762 46.0114C1.9762 56.1063 5.29941 65.425 10.9115 72.9332V74.5724C4.69099 66.7257 0.976196 56.8024 0.976196 46.0114C0.976196 20.6 21.5762 0 46.9876 0ZM14.112 78.2022C22.4639 86.7306 34.1077 92.0227 46.9876 92.0227C59.8674 92.0227 71.5112 86.7306 79.8631 78.2022H79.7336V76.8939C71.5265 85.5931 59.8911 91.0227 46.9876 91.0227C34.7437 91.0227 23.6416 86.1341 15.5268 78.2022H14.112ZM84.5064 72.652C89.8542 65.1341 92.9989 55.94 92.9989 46.0114C92.9989 42.5805 92.6234 39.2373 91.9113 36.0207H90.8863C91.6145 39.234 91.9989 42.5778 91.9989 46.0114C91.9989 55.9806 88.7579 65.1929 83.2721 72.652H84.5064ZM66.9682 4.55305C77.7691 9.76802 86.2213 19.0794 90.3083 30.4706H89.244C85.2571 19.6333 77.2202 10.7537 66.9682 5.66667V4.55305Z" fill="white"/>
<path fill-rule="evenodd" clip-rule="evenodd" d="M2.60519 30.4716C2.60525 30.4715 2.60531 30.4713 2.60538 30.4711H5.79832C5.79825 30.4713 5.79819 30.4715 5.79812 30.4716H2.60519ZM12.7269 78.2031C21.3019 87.3257 33.4793 93.0229 46.9874 93.0229C60.4956 93.0229 72.673 87.3257 81.248 78.2031H76.9995C69.1375 85.5359 58.5865 90.0229 46.9874 90.0229C35.3884 90.0229 24.8374 85.5359 16.9754 78.2031H12.7269ZM88.1768 30.4716H91.3697C87.2558 18.7215 78.6076 9.10185 67.5231 3.71069V7.07485C76.9626 12.0637 84.3692 20.3846 88.1768 30.4716Z" fill="white"/>
<path d="M35.7252 55.7545L57.2132 34.2665M57.2132 34.2665L56.8775 47.3608M57.2132 34.2665L44.119 34.6023" stroke="white" stroke-width="1.5"/>
</svg>
