<svg width="115" height="114" viewBox="0 0 115 114" fill="none" xmlns="http://www.w3.org/2000/svg">
<path fill-rule="evenodd" clip-rule="evenodd" d="M57.3247 0.808387L93.3876 36.8714L92.6805 37.5785L56.9711 1.86905L46.1076 12.7326L45.4005 12.0255L56.6176 0.808387L56.9711 0.454834L57.3247 0.808387ZM2.1835 55.2425L0.997921 56.428L0.644367 56.7816L0.997921 57.1352L56.6176 112.755L56.9711 113.108L57.3247 112.755L92.9537 77.1257L92.2466 76.4186L56.9711 111.694L2.05858 56.7816L2.89061 55.9496L2.1835 55.2425ZM5.57495 51.851L6.28205 52.5581L42.7162 16.124L42.0091 15.4169L5.57495 51.851ZM112.944 57.1352L96.3452 73.7343L95.6381 73.0272L111.884 56.7816L96.072 40.9699L96.7791 40.2628L112.944 56.428L113.298 56.7816L112.944 57.1352Z" fill="white"/>
<path fill-rule="evenodd" clip-rule="evenodd" d="M5.03892 50.973L7.16024 53.0943L43.3223 16.9322L41.201 14.8109L5.03892 50.973ZM113.651 57.8424L97.0004 74.4935L94.8791 72.3722L110.469 56.7818L95.2122 41.5245L97.3335 39.4031L113.651 55.7211L114.712 56.7818L113.651 57.8424Z" fill="white"/>
<path d="M45.9886 44.4314L68.616 67.0588M68.616 67.0588L54.8274 66.7053M68.616 67.0588L68.2624 53.2702" stroke="white" stroke-width="1.5"/>
</svg>
