<svg width="119" height="120" viewBox="0 0 119 120" fill="none" xmlns="http://www.w3.org/2000/svg">
<g opacity="0.6" filter="url(#filter0_f_533_7301)">
<rect x="19" y="19" width="81" height="82" stroke="#0342E7" stroke-width="8"/>
</g>
<g filter="url(#filter1_f_533_7301)">
<rect x="19" y="19" width="81" height="82" stroke="#0342E7" stroke-width="4"/>
</g>
<g opacity="0.9" filter="url(#filter2_f_533_7301)">
<path fill-rule="evenodd" clip-rule="evenodd" d="M18.9881 18.9822H72.3452V19.9822H19.4881V39.2441L18.4881 39.2441V19.4822V18.9822H18.9881ZM18.4881 98.5298V100.506V101.006H18.9881H100.012H100.512V100.506V47.1488H99.5119V100.006H19.4881V98.5298H18.4881ZM18.4881 93.5893H19.4881V44.1846H18.4881V93.5893ZM100.512 19.4822V42.2084H99.5119V19.9822H77.2857V18.9822H100.012H100.512V19.4822Z" fill="white"/>
</g>
<g opacity="0.9" filter="url(#filter3_f_533_7301)">
<path fill-rule="evenodd" clip-rule="evenodd" d="M17.4881 93.5893H20.4881V44.1846H17.4881V93.5893ZM101.512 19.4822V42.2083H98.5119V20.9822H77.2857V17.9822H100.012H101.512V19.4822Z" fill="white"/>
</g>
<g filter="url(#filter4_f_533_7301)">
<path d="M43 59L75 59M75 59L65 68.5M75 59L65 49.5" stroke="#0342E7" stroke-width="4"/>
</g>
<g filter="url(#filter5_f_533_7301)">
<path d="M43 59L75 59M75 59L65 68.5M75 59L65 49.5" stroke="#0342E7" stroke-width="3"/>
</g>
<path opacity="0.6" d="M43 59L75 59M75 59L65 68.5M75 59L65 49.5" stroke="white" stroke-width="1.5"/>
<defs>
<filter id="filter0_f_533_7301" x="0" y="0" width="119" height="120" filterUnits="userSpaceOnUse" color-interpolation-filters="sRGB">
<feFlood flood-opacity="0" result="BackgroundImageFix"/>
<feBlend mode="normal" in="SourceGraphic" in2="BackgroundImageFix" result="shape"/>
<feGaussianBlur stdDeviation="7.5" result="effect1_foregroundBlur_533_7301"/>
</filter>
<filter id="filter1_f_533_7301" x="11" y="11" width="97" height="98" filterUnits="userSpaceOnUse" color-interpolation-filters="sRGB">
<feFlood flood-opacity="0" result="BackgroundImageFix"/>
<feBlend mode="normal" in="SourceGraphic" in2="BackgroundImageFix" result="shape"/>
<feGaussianBlur stdDeviation="3" result="effect1_foregroundBlur_533_7301"/>
</filter>
<filter id="filter2_f_533_7301" x="17.4881" y="17.9822" width="84.0238" height="84.0239" filterUnits="userSpaceOnUse" color-interpolation-filters="sRGB">
<feFlood flood-opacity="0" result="BackgroundImageFix"/>
<feBlend mode="normal" in="SourceGraphic" in2="BackgroundImageFix" result="shape"/>
<feGaussianBlur stdDeviation="0.5" result="effect1_foregroundBlur_533_7301"/>
</filter>
<filter id="filter3_f_533_7301" x="15.4881" y="15.9822" width="88.0238" height="79.6072" filterUnits="userSpaceOnUse" color-interpolation-filters="sRGB">
<feFlood flood-opacity="0" result="BackgroundImageFix"/>
<feBlend mode="normal" in="SourceGraphic" in2="BackgroundImageFix" result="shape"/>
<feGaussianBlur stdDeviation="1" result="effect1_foregroundBlur_533_7301"/>
</filter>
<filter id="filter4_f_533_7301" x="28" y="33.05" width="64.9038" height="51.8999" filterUnits="userSpaceOnUse" color-interpolation-filters="sRGB">
<feFlood flood-opacity="0" result="BackgroundImageFix"/>
<feBlend mode="normal" in="SourceGraphic" in2="BackgroundImageFix" result="shape"/>
<feGaussianBlur stdDeviation="7.5" result="effect1_foregroundBlur_533_7301"/>
</filter>
<filter id="filter5_f_533_7301" x="38" y="43.4126" width="44.1779" height="31.1748" filterUnits="userSpaceOnUse" color-interpolation-filters="sRGB">
<feFlood flood-opacity="0" result="BackgroundImageFix"/>
<feBlend mode="normal" in="SourceGraphic" in2="BackgroundImageFix" result="shape"/>
<feGaussianBlur stdDeviation="2.5" result="effect1_foregroundBlur_533_7301"/>
</filter>
</defs>
</svg>
