<svg width="85" height="85" viewBox="0 0 85 85" fill="none" xmlns="http://www.w3.org/2000/svg">
<path fill-rule="evenodd" clip-rule="evenodd" d="M2.4762 1.98218H55.8333V2.98218H2.9762V22.2441L1.9762 22.2441V2.48218V1.98218H2.4762ZM1.9762 81.5298V83.506V84.006H2.4762H83.5H84V83.506V30.1488H83V83.006H2.9762V81.5298H1.9762ZM1.9762 76.5893H2.9762V27.1846H1.9762V76.5893ZM84 2.48218V25.2084L83 25.2084V2.98218H60.7738V1.98218H83.5H84V2.48218Z" fill="white"/>
<path opacity="0.9" fill-rule="evenodd" clip-rule="evenodd" d="M0.976196 76.5893H3.9762V27.1846H0.976196V76.5893ZM85 2.48218V25.2083H82V3.98218H60.7738V0.982178H83.5H85V2.48218Z" fill="white"/>
<path d="M26.4881 42L58.4881 42M58.4881 42L48.4881 51.5M58.4881 42L48.4881 32.5" stroke="white" stroke-width="1.5"/>
</svg>
