<svg width="127" height="143" viewBox="0 0 127 143" fill="none" xmlns="http://www.w3.org/2000/svg">
<g opacity="0.6" filter="url(#filter0_f_319_10654)">
<path d="M19.5 22.8706L19.5 120.871L103.5 71.8706L19.5 22.8706Z" stroke="#0342E7" stroke-width="8"/>
</g>
<g filter="url(#filter1_f_319_10654)">
<path d="M19.5 22.8706L19.5 120.871L103.5 71.8706L19.5 22.8706Z" stroke="#0342E7" stroke-width="4"/>
</g>
<g opacity="0.9" filter="url(#filter2_f_319_10654)">
<path fill-rule="evenodd" clip-rule="evenodd" d="M19 120.871L19 92.8709L20 92.8709L20 120L41.5 107.459L41.5 108.616L19.752 121.303L19 121.741L19 120.871ZM46.5 105.7L46.5 104.542L95.5 75.9585L95.5 76.8707L95.9209 76.8707L46.5 105.7ZM104.492 71.8707L103.752 71.4388L59.5 45.6252L59.5 46.7829L102.508 71.8707L104.492 71.8707ZM54.5 42.7085L19.752 22.4388L19 22.0002L19 22.8707L19 87.8709L20 87.8709L20 23.7412L54.5 43.8662L54.5 42.7085Z" fill="white"/>
</g>
<g opacity="0.9" filter="url(#filter3_f_319_10654)">
<path fill-rule="evenodd" clip-rule="evenodd" d="M18 92.8706L18 120.871L18 123.482L20.2558 122.166L42.5 109.191L42.5 105.717L21 118.259L21 92.8706L18 92.8706ZM59.4999 47.9405L59.4999 44.4674L104.256 70.5749L106.477 71.8706L100.523 71.8706L59.4999 47.9405Z" fill="white"/>
</g>
<g filter="url(#filter4_f_319_10654)">
<path d="M36.5 72.3706L64.5 72.3706M64.5 72.3706L55.75 63.8706M64.5 72.3706L55.75 80.8706" stroke="#0342E7" stroke-width="4"/>
</g>
<g filter="url(#filter5_f_319_10654)">
<path d="M36.5 72.3706L64.5 72.3706M64.5 72.3706L55.75 63.8706M64.5 72.3706L55.75 80.8706" stroke="#0342E7" stroke-width="3"/>
</g>
<path opacity="0.6" d="M36.5 72.3706L64.5 72.3706M64.5 72.3706L55.75 63.8706M64.5 72.3706L55.75 80.8706" stroke="white" stroke-width="1.5"/>
<defs>
<filter id="filter0_f_319_10654" x="0.499969" y="0.906494" width="125.939" height="141.928" filterUnits="userSpaceOnUse" color-interpolation-filters="sRGB">
<feFlood flood-opacity="0" result="BackgroundImageFix"/>
<feBlend mode="normal" in="SourceGraphic" in2="BackgroundImageFix" result="shape"/>
<feGaussianBlur stdDeviation="7.5" result="effect1_foregroundBlur_319_10654"/>
</filter>
<filter id="filter1_f_319_10654" x="11.5" y="13.3884" width="101.969" height="116.964" filterUnits="userSpaceOnUse" color-interpolation-filters="sRGB">
<feFlood flood-opacity="0" result="BackgroundImageFix"/>
<feBlend mode="normal" in="SourceGraphic" in2="BackgroundImageFix" result="shape"/>
<feGaussianBlur stdDeviation="3" result="effect1_foregroundBlur_319_10654"/>
</filter>
<filter id="filter2_f_319_10654" x="18" y="21.0002" width="87.4923" height="101.741" filterUnits="userSpaceOnUse" color-interpolation-filters="sRGB">
<feFlood flood-opacity="0" result="BackgroundImageFix"/>
<feBlend mode="normal" in="SourceGraphic" in2="BackgroundImageFix" result="shape"/>
<feGaussianBlur stdDeviation="0.5" result="effect1_foregroundBlur_319_10654"/>
</filter>
<filter id="filter3_f_319_10654" x="16" y="42.4673" width="92.4769" height="83.0149" filterUnits="userSpaceOnUse" color-interpolation-filters="sRGB">
<feFlood flood-opacity="0" result="BackgroundImageFix"/>
<feBlend mode="normal" in="SourceGraphic" in2="BackgroundImageFix" result="shape"/>
<feGaussianBlur stdDeviation="1" result="effect1_foregroundBlur_319_10654"/>
</filter>
<filter id="filter4_f_319_10654" x="21.5" y="47.436" width="60.8703" height="49.8691" filterUnits="userSpaceOnUse" color-interpolation-filters="sRGB">
<feFlood flood-opacity="0" result="BackgroundImageFix"/>
<feBlend mode="normal" in="SourceGraphic" in2="BackgroundImageFix" result="shape"/>
<feGaussianBlur stdDeviation="7.5" result="effect1_foregroundBlur_319_10654"/>
</filter>
<filter id="filter5_f_319_10654" x="31.5" y="57.7947" width="40.1527" height="29.1519" filterUnits="userSpaceOnUse" color-interpolation-filters="sRGB">
<feFlood flood-opacity="0" result="BackgroundImageFix"/>
<feBlend mode="normal" in="SourceGraphic" in2="BackgroundImageFix" result="shape"/>
<feGaussianBlur stdDeviation="2.5" result="effect1_foregroundBlur_319_10654"/>
</filter>
</defs>
</svg>
