<svg width="103" height="89" viewBox="0 0 103 89" fill="none" xmlns="http://www.w3.org/2000/svg">
<path fill-rule="evenodd" clip-rule="evenodd" d="M3.58774 1H31.5877V2H4.45826L16.9999 23.5H15.8422L3.15585 1.75194L2.71722 1H3.58774ZM18.7589 28.5H19.9166L48.4999 77.5H47.5877V77.9208L18.7589 28.5ZM52.5877 86.4923L52.5877 86.4923L53.0196 85.7519L78.8333 41.5H77.6756L52.5877 84.5077L52.5877 84.5076V86.4923ZM81.7499 36.5L102.02 1.75194L102.458 1H101.588H36.5877V2H100.717L80.5922 36.5H81.7499Z" fill="white"/>
<path fill-rule="evenodd" clip-rule="evenodd" d="M31.5877 0H3.58775H0.976196L2.29208 2.25581L15.2679 24.5H18.741L6.19931 3H31.5877V0ZM76.5179 41.5H79.991L53.8834 86.2558L52.5878 88.477V82.523L76.5179 41.5Z" fill="white"/>
<path d="M53.0878 46.5L53.0878 18.5M53.0878 18.5L61.5878 27.25M53.0878 18.5L44.5878 27.25" stroke="white" stroke-width="1.5"/>
</svg>
