<svg width="90" height="102" viewBox="0 0 90 102" fill="none" xmlns="http://www.w3.org/2000/svg">
<path fill-rule="evenodd" clip-rule="evenodd" d="M1.97623 98.8707L1.97623 70.8709L2.97623 70.8709L2.97623 98.0002L24.4762 85.4585L24.4762 86.6162L2.72816 99.3026L1.97623 99.7412L1.97623 98.8707ZM29.4762 83.6995L29.4762 82.5418L78.4762 53.9585L78.4762 54.8707L78.8971 54.8707L29.4762 83.6995ZM87.4685 49.8707L86.7282 49.4388L42.4762 23.6252L42.4762 24.7829L85.4839 49.8707L87.4685 49.8707ZM37.4762 20.7085L2.72816 0.438797L1.97622 0.000167847L1.97622 0.870689L1.97623 65.8709L2.97623 65.8709L2.97622 1.74121L37.4762 21.8662L37.4762 20.7085Z" fill="white"/>
<path fill-rule="evenodd" clip-rule="evenodd" d="M0.976195 70.8706L0.976196 98.8706L0.976196 101.482L3.232 100.166L25.4762 87.1905L25.4762 83.7174L3.9762 96.2591L3.97619 70.8706L0.976195 70.8706ZM42.4761 25.9405L42.4761 22.4674L87.232 48.5749L89.4531 49.8706L83.4992 49.8706L42.4761 25.9405Z" fill="white"/>
<path d="M19.4762 50.3706L47.4762 50.3706M47.4762 50.3706L38.7262 41.8706M47.4762 50.3706L38.7262 58.8706" stroke="white" stroke-width="1.5"/>
</svg>
